<?xml version="1.0" encoding="UTF-8"?>
<!-- Generator: Adobe Illustrator 19.2.1, SVG Export Plug-In . SVG Version: 6.00 Build 0)  -->
<svg version="1.1" id="Layer_1" xmlns="http://www.w3.org/2000/svg" xmlns:xlink="http://www.w3.org/1999/xlink" x="0px" y="0px" viewBox="0 0 100 40" style="enable-background:new 0 0 100 40;" xml:space="preserve">
<style type="text/css">
	.st0{fill:#010101;stroke:#010101;stroke-width:0.6243;}
	.st1{fill:#FFCD05;}
	.st2{fill:#010101;}
</style>
<path class="st0" d="M95.1,20.3c0-0.1,0-0.1,0-0.2c-0.3-2.6-0.7-3.8-2.1-5.8c0-1.1,0-9.7,0-9.7l-1.8-1.4c-1.4-1-2.7-1.5-4.1-1.5  c-0.3,0-0.7,0-1,0.1v0v0c-0.2,0-0.4,0.1-0.6,0.1l-1.9,0.5l-0.1-0.5L57.8,2l-0.9,0.5C56.8,2.3,56.8,2,56.8,2l-9,0l-5.4,2.1  C39.9,2,36.8,2,35,2l-24.9,0l0,0L3,9.5c0,0,0,0,0,0c0,0.1,0,0.5,0.1,1c0,0,0,0,0,0c0,0,0,0.3,0,0.7c0,0.5,0.1,1,0.1,1.6  c0,0.1,0,0.2,0,0.3c0,0,0,0.1,0,0.1c0,0.7,0.1,1.4,0.1,2.1c0,0.3,0,0.6,0.1,0.8c0,0,0.1,0.9,0.1,1.3c0,0.2,0,0.4,0,0.5l-1.3,0.7  l-1.6,9.3l3.7,0.5c0,0.2,0,0.4,0,0.6c0,0.2,0,0.5,0,0.7c0,0,0.1,0.8,0.1,1.2c0,0,0.1,0.8,0.1,1.2c0,0,0.1,1.4,0.1,1.9  c0,0.4,0,0.7,0.1,0.8c0,0,0,0,0,0l8,4.1l25.2-2.8c1.5-0.2,2.9-0.5,4.1-1.1l2.3,0.4l10.6-1.2c0,0,0-0.4,0-0.6l1.5,0.4l28.9-3.2  l0.1-0.3l3.2,0.2c-0.2,0,0.5,0,0.9,0C93.4,30.4,95.8,26.1,95.1,20.3z"/>
<g>
	<polygon class="st1" points="21.3,28.8 21,23.9 21,23.9 27,23.5 27,23.5 26.6,18.4 26.6,18.4 20.6,18.7 20.6,18.7 20,11 20,11    27.9,10.8 27.9,10.8 27.5,5.7 27.5,5.7 14.3,5.9 14.3,5.9 15.3,18.9 15.3,18.9 12.7,19.1 12.7,19.1 11.9,24.5 11.9,24.5 15.7,24.3    15.7,24.3 16.4,34.7 16.4,34.7 28.7,33.4 28.7,33.4 29.6,28.1 29.6,28.1  "/>
	<path class="st1" d="M40.8,24c0.2,2.2-1.3,3.9-3.2,4l0,0l-0.6-7.3l0,0C38.8,20.5,40.6,21.9,40.8,24z M37.8,32.5   c4.3-0.4,8-3,7.5-8.3l0,0c-0.2-2.3-1.4-5-3.4-5.9l0,0c1.6-1.4,2.2-3.2,2-5.5l0,0C43.7,10.6,42.7,8.3,41,7l0,0   c-1.6-1.3-3.7-1.4-5.5-1.3l0,0l-4.7,0.1l0,0L33.1,33l0,0L37.8,32.5z M39.6,13c0.2,2-1.3,3.4-3,3.5l0,0L36,10l0,0   C37.8,9.9,39.4,11.1,39.6,13z"/>
	<polygon class="st1" points="78.5,24.1 78,20 78,20 82.2,19.8 82.2,19.8 81.7,15.5 81.7,15.5 77.5,15.7 77.5,15.7 76.8,9.4    76.8,9.4 82.3,9.2 82.3,9.2 81.8,5 81.8,5 72.7,5.1 72.7,5.1 73.9,15.9 73.9,15.9 72.4,16 72.4,16 72,20.4 72,20.4 74.4,20.3    74.4,20.3 75.3,28.8 75.3,28.8 83.4,28 83.4,28 83.8,23.6 83.8,23.6  "/>
	<polygon class="st1" points="71.5,9.5 71.1,5.2 71.1,5.2 59.2,5.3 59.2,5.3 59.6,9.9 59.6,9.9 63.8,9.8 63.8,9.8 65.8,29.8    65.8,29.8 69.7,29.4 69.7,29.4 67.6,9.6 67.6,9.6  "/>
	<path class="st1" d="M61.4,21.1l-1.5,0.1l0,0L55.1,5.4l0,0l-4.4,0.1l0,0L48.9,22l0,0l-1.6,0.1l0,0l-0.5,4.6l0,0l1.6-0.1l0,0l-0.5,5   l0,0l4.4-0.4l0,0l0.4-4.9l0,0l4.2-0.3l0,0l1.3,4.7l0,0l4.4-0.4l0,0l-1.4-4.6l0,0l1.5-0.1l0,0L61.4,21.1z M53,21.7l0.2-6l0,0   l0.1-3.8l0,0l0.1,0l0,0l0.9,3.8l0,0l1.5,5.9l0,0L53,21.7z"/>
	<path class="st1" d="M90.7,9.7c-0.7-0.6-1.4-1-2.1-1l0,0c-1,0-1.6,0.8-1.4,2.2l0,0c0.4,3.7,5.3,3.7,6,9.7l0,0c0.4,3.9-0.9,7-4,7.3   l0,0c-0.9,0.1-2.1-0.2-3-0.9l0,0c0,0-0.1-4-0.1-4l0,0c0.7,0.5,1.5,0.8,2.3,0.8l0,0c1.1-0.1,1.8-1.1,1.6-2.5l0,0   c-0.2-1.7-1.3-2.3-2.3-3.2l0,0c-2.1-1.7-3.5-3.3-3.8-6.6l0,0c-0.4-3.5,0.9-6.6,3.7-6.5l0,0c1.1,0,2,0.4,3,1.1l0,0L90.7,9.7z"/>
</g>
<g>
	<path class="st2" d="M99.6,3.3c0,1.4-1.1,2.5-2.6,2.5c-1.5,0-2.6-1.1-2.6-2.5c0-1.4,1.2-2.5,2.6-2.5C98.5,0.8,99.6,1.9,99.6,3.3z    M95.1,3.3c0,1.1,0.9,2,2,2c1.1,0,1.9-0.9,1.9-2c0-1.1-0.8-2-2-2C95.9,1.3,95.1,2.2,95.1,3.3z M96.6,4.7H96V2.1   c0.2,0,0.6-0.1,1-0.1c0.5,0,0.7,0.1,0.9,0.2c0.2,0.1,0.3,0.3,0.3,0.5c0,0.3-0.2,0.5-0.5,0.6v0C97.9,3.5,98,3.7,98.1,4   c0.1,0.4,0.1,0.5,0.2,0.6h-0.6c-0.1-0.1-0.1-0.3-0.2-0.6c0-0.3-0.2-0.4-0.5-0.4h-0.3V4.7z M96.6,3.2h0.3c0.3,0,0.6-0.1,0.6-0.4   c0-0.2-0.2-0.4-0.5-0.4c-0.2,0-0.3,0-0.3,0V3.2z"/>
</g>
</svg>